# xmcd
#
# Track frame offsets:
#	150
#	29551
#	47242
#	68395
#	97263
#	136221
#	156563
#	195219
#	229577
#	254764
#
# Disc length: 3824 seconds
#
# Revision: 1
# Processed by: cddbd v1.5.2PL0 Copyright (c) Steve Scherf et al.
# Submitted via: audiograbber 1.83.01
#
DISCID=8a0eee0a
DTITLE=Grateful Dead - 79-09-06 Madison Square Garden, New York NY
DYEAR=1900
DGENRE=
TTITLE0=Minglewood Blues
TTITLE1=Dire Wolf
TTITLE2=El Paso
TTITLE3=Brown-Eyed Women
TTITLE4=It's All Over Now
TTITLE5=Don't Ease Me In
TTITLE6=Looks Like Rain
TTITLE7=Althea
TTITLE8=Lost Sailor
TTITLE9=Saint Of Circumstance
EXTD=
EXTT0=
EXTT1=
EXTT2=
EXTT3=
EXTT4=
EXTT5=
EXTT6=
EXTT7=
EXTT8=
EXTT9=
PLAYORDER=
